<?xml version="1.0" encoding="utf-8"?>
<!-- Generator: Adobe Illustrator 18.0.0, SVG Export Plug-In . SVG Version: 6.00 Build 0)  -->
<!DOCTYPE svg PUBLIC "-//W3C//DTD SVG 1.1//EN" "http://www.w3.org/Graphics/SVG/1.1/DTD/svg11.dtd">
<svg version="1.1" id="Layer_1" xmlns="http://www.w3.org/2000/svg" xmlns:xlink="http://www.w3.org/1999/xlink" x="0px" y="0px"
	 viewBox="0 0 431.3 75.2" enable-background="new 0 0 431.3 75.2" xml:space="preserve">
<path fill="#FFFFFF" d="M431.2,62.8V20.3c0.1-7.1-3.7-16.1-7.4-18.1C420.3,0.1,417,0,416.7,0H34c-6.2-0.1-10.6,2-13,4.9
	c-2.4,2.9-2.7,6-2.7,7.7c0,0.4,0,0.8,0.1,1v8.9H2.1c-1.1,0-2.1,0.9-2.1,2.1v34.4C0,60.1,0.9,61,2.1,61h4.6v13.3
	c0,1.2,0.8,2.1,1.7,2.1h7c1,0,1.7-1,1.7-2.1V61h10.1v13.3c0,1.2,0.8,2.1,1.7,2.1h7c0.9,0,1.7-1,1.7-2.1V61h4.6
	c1.1,0,2.1-0.9,2.1-2.1V24.5c0-1.1-0.9-2.1-2.1-2.1H25.7V13l0-0.3c0,0,0,0,0-0.2c0.6-1.4-0.9-4.8,8.3-5.2h382.5
	c-0.2,0,1.8,0.1,3.7,1.2c1.9,1.2,3.6,6.9,3.7,11.7v43.2l0.1,0.3c0,0,0,0.1,0,0.6c-0.6,1.4,0.9,3.3-6.1,3.8v7.4c0.1,0,0.1,0,0.2,0
	c4.9,0,8.6-1.6,10.8-4.1c2.2-2.5,2.5-5.3,2.5-7C431.3,63.7,431.3,63.1,431.2,62.8z"/>
<g>
	<path fill="#FFFFFF" d="M86,25.3c-0.9-0.8-2.1-1.5-3.4-1.5H61.7c-1.5,0-2.6,1-2.6,2.5v46.5c0,1.5,1.1,2.4,2.6,2.4h3.3
		c1.5,0,2.5-0.9,2.5-2.4V59c0-0.4,0.4-0.5,0.7-0.2l0.9,1c0.6,0.7,1.6,0.8,2.6,0.8h10.6c1.1,0,2.4-0.3,3.5-1.3c0,0,7.2-6.7,7.8-7.4
		c0.9-0.8,1.5-2.3,1.5-3.6V36c0-1.1-0.3-2.5-1.4-3.5L86,25.3z M86.9,46.7c0,0.6-0.3,1.6-1,2.4l-3.1,3.3c-0.8,0.9-2,1.1-2.5,1.1h-6.4
		c-0.6,0-1.6-0.2-2.2-0.9l-3.1-3.2c-0.9-0.9-1.1-1.8-1.1-2.7V32c0-0.6,0.2-0.9,0.9-0.9h11.9c0.6,0,1.6,0.1,2.2,0.8l3.3,3.5
		c0.7,0.8,1,1.8,1,2.3V46.7z"/>
	<path fill="#FFFFFF" d="M112.5,44.2h-9.2c-1.6,0-2.6,1.1-2.6,2.5v2.2c0,1.5,1,2.4,2.6,2.4h2.4c0.5,0.1,1.1,0.6,1.1,1.1v20.8
		c0,1.5,1.1,2.3,2.6,2.3h3.2c1.5,0,2.6-0.8,2.6-2.3V46.8C115.2,45.3,114,44.2,112.5,44.2z"/>
	<path fill="#FFFFFF" d="M113,29.7h-4.7c-1.3,0-2.3,1.1-2.3,2.3v4.5c0,1.2,1,2.3,2.3,2.3h4.7c1.3,0,2.3-1.1,2.3-2.3V32
		C115.3,30.8,114.2,29.7,113,29.7z"/>
	<path fill="#FFFFFF" d="M151.3,55.9c-0.3-0.4-0.3-0.7,0-1.1l3.4-3.3c0.9-0.9,1.3-2,1.3-3.3V41c0-1.5-1.1-2.4-2.7-2.4h-3.1
		c-1.5,0-2.6,0.9-2.6,2.4v5.7c0,0.6-0.2,1.6-1,2.4l-2.8,2.8c-0.6,0.5-1.3,0.5-1.9,0.5h-1.5c-0.6,0-1.6-0.1-2.3-0.8l-2.6-2.7
		c-0.7-0.7-0.9-1.6-0.9-2.3v-5.6c0-1.5-1.1-2.5-2.6-2.5h-3.3c-1.5,0-2.6,1-2.6,2.5v7.3c0,1.3,0.5,2.4,1.4,3.3l3.5,3.3
		c0.3,0.3,0.3,0.7-0.1,1.1l-5.5,5.4c-0.8,0.9-1.5,2-1.5,3.1V73c0,1.4,1.1,2.4,2.6,2.4h3.3c1.5,0,2.5-1,2.5-2.5v-6.9
		c0-0.6,0.1-1.5,0.8-2.1l3.7-3.6c0.6-0.5,1.5-0.8,2.1-0.8h4.3c0.6,0,1.4,0.1,2.1,0.8l3.9,3.9c0.5,0.6,0.6,1.4,0.6,1.8v7
		c0,1.4,1,2.3,2.5,2.3h3.3c1.5,0,2.5-0.9,2.5-2.4v-8.6c0-1.2-0.4-2.4-1.3-3.4L151.3,55.9z"/>
	<path fill="#FFFFFF" d="M199.6,47.1l-8.1-7.5c-0.9-0.9-2.1-1.1-3.1-1.1h-10.6c-1.8,0-2.6,0.5-3.5,1.2l-8.1,7.6
		c-0.9,0.8-1.1,2.1-1.1,3v13c0,1.2,0.4,2.4,1.3,3.2l8,7.5c1,0.9,2.3,1.3,3.4,1.3h17.1c1.5,0,2.5-1,2.5-2.4v-2.2
		c0-1.4-0.9-2.5-2.4-2.5h-14.8c-0.6,0-1.8-0.3-2.6-1.1l-3.6-3.9c-0.4-0.5-0.5-1.1-0.5-1.8c0-0.5,0.1-1,0.6-1h24.3
		c1.5,0,2.7-1,2.7-2.4v-7.8C201.1,49.3,200.5,47.9,199.6,47.1z M192.7,53.4c0,0.5-0.3,0.8-0.8,0.8h-17.7c-0.4,0-0.8-0.3-0.8-0.8
		v-1.3c0-0.6,0.4-1.6,1-2.3l3.3-3.3c0.7-0.8,1.8-0.9,2.5-0.9h5.8c0.6,0,1.8,0.2,2.6,0.9l3.5,3.6c0.4,0.5,0.7,1.5,0.7,1.9V53.4z"/>
	<path fill="#FFFFFF" d="M257,54.9c-1-1-3.3-1.8-4.8-1.8h-9.1c-0.4,0-1,0-1.6-0.4l-1.5-1.1c-0.4-0.3-0.5-0.9-0.5-1.2v-0.7
		c0-0.4,0.1-1.1,0.9-1.7l1.9-1.6c0.6-0.5,1.5-0.7,2.1-0.7H257c1.6,0,2.5-1,2.5-2.4v-2.2c0-1.4-0.9-2.5-2.5-2.5h-14.7
		c-1.5,0-3.8,0.9-4.6,1.8l-4.7,4.8c-1,1-1.8,2.5-1.8,3.9v1.8c0,1.2,0.3,2.7,1.3,3.5l4,3.7c1.1,1,2.9,1.7,4.3,1.7h8.4
		c0.9,0,2.2,0.3,2.8,0.8l2.3,1.6c0.5,0.4,0.8,1,0.8,1.6v1.6c0,0.7-1,1.6-1.5,2.1c-0.5,0.5-1.1,0.6-2.2,0.6h-16.1
		c-0.4,0-0.7,0.1-1,0.2c-0.3-0.1-0.6-0.2-1-0.2H222c-0.6,0-1.6-0.1-2.2-0.7l-3.5-3.6c-0.7-0.8-1.1-1.6-1.1-2.3v-35
		c0-1.4-0.9-2.4-2.5-2.4h-3.4c-1.5,0-2.5,1-2.5,2.4v36.7c0,1.2,0.6,2.6,1.5,3.5l6.7,6.6c1.4,1.4,3.2,2.1,4.5,2.1h13.8
		c0.4,0,0.7-0.1,1-0.2c0.3,0.1,0.7,0.2,1,0.2h18.5c1.3,0,2.8-0.3,3.8-1.3l4-3.6c0.9-0.9,1.7-2.3,1.7-3.9v-4c0-1.5-0.6-2.7-1.4-3.5
		L257,54.9z"/>
	<path fill="#FFFFFF" d="M287.8,68.2h-3c-0.6,0-1.6-0.1-2.2-0.7l-3.5-3.6c-0.7-0.8-1.1-1.6-1.1-2.3v-35c0-1.4-0.9-2.4-2.5-2.4h-3.4
		c-1.5,0-2.5,1-2.5,2.4v36.7c0,1.2,0.6,2.6,1.5,3.5l6.7,6.6c1.4,1.4,3.2,2.1,4.6,2.1h5.4c1.6,0,2.6-1.1,2.6-2.6v-2.1
		C290.4,69.3,289.4,68.2,287.8,68.2z"/>
	<path fill="#FFFFFF" d="M317.5,40.3c-1.3-1.2-3-1.7-4.4-1.7h-10.4c-1.7,0-2.6,0.8-2.6,2.5v1.9c0,1.6,0.8,2.6,2.5,2.6h8.3
		c0.9,0,2.3,0.5,2.8,1.1l3.5,4c0.8,0.9,0.9,2.2-0.3,2.2h-11.1c-1.4,0-3.3,0.7-4.3,1.6l-6.5,6.4c-0.9,0.9-1.1,2.1-1.1,3.2v2.3
		c0,1.3,0.8,3.1,1.8,4l4.3,3.8c1,0.9,2.3,1.3,3.8,1.3h9.5c1.8,0,3-0.6,3.8-1.9l0.9-1.4c0.1-0.2,0.7-0.2,0.7,0.1l0.3,1
		c0.5,1.4,0.9,2.1,2.5,2.1h2.2c1.8,0,2.4-1.4,2.4-3V51.2c-0.1-1.3-0.9-3.7-1.9-4.6L317.5,40.3z M317.7,61.7c0,0.4-0.2,1.3-0.6,2
		l-2.7,3.2c-1,1.1-2.4,1.6-3.4,1.6h-5.1c-0.9,0-2.1-0.1-2.7-0.6c-0.4-0.4-1.2-1-1.2-1.9v-1.1c0-0.6,0.4-1.1,0.7-1.4l2.4-2.4
		c1-1,2.3-1.4,3.2-1.4h8.5c0.6,0,1,0.4,1,0.9V61.7z"/>
	<path fill="#FFFFFF" d="M365.8,38.6h-3.9c-1.4,0-2.7,0.9-3.2,2.1L349,65.8c-0.2,0.5-0.6,0.5-0.8,0l-9.8-25.1
		c-0.5-1.2-1.8-2.1-3.2-2.1h-3.9c-1.7,0-2.1,1.4-1.5,2.9l13.6,31.8c0.6,1.2,1.7,2.1,3,2.1h4.1c1.3,0,2.5-0.9,3.1-2.1l13.6-31.8
		C367.9,40,367.5,38.6,365.8,38.6z"/>
	<path fill="#FFFFFF" d="M419.4,68.3H386c-0.6,0-1.8-0.3-2.6-1.1l-3.6-3.9c-0.4-0.5-0.5-1.1-0.5-1.8c0-0.5,0.1-1,0.6-1h24.3
		c1.5,0,2.7-1,2.7-2.4v-7.8c0-1.2-0.6-2.6-1.5-3.3l-8.1-7.5c-0.9-0.9-2.1-1.1-3.1-1.1h-10.6c-1.8,0-2.6,0.5-3.5,1.2l-8.1,7.6
		c-0.9,0.8-1.1,2.1-1.1,3v13c0,1.2,0.4,2.4,1.3,3.2l8,7.5c1,0.9,2.3,1.3,3.4,1.3h35.7c1.5,0,2.5-1,2.5-2.4v-2.2
		C421.8,69.4,420.9,68.3,419.4,68.3z M379.3,52.1c0-0.6,0.3-1.6,1-2.3l3.3-3.3c0.7-0.8,1.8-0.9,2.5-0.9h5.8c0.6,0,1.9,0.2,2.5,0.9
		l3.5,3.6c0.4,0.5,0.7,1.5,0.7,1.9v1.3c0,0.5-0.3,0.8-0.8,0.8h-17.7c-0.4,0-0.8-0.3-0.8-0.8V52.1z"/>
</g>
</svg>
